<svg width="43.282" height="19.403" version="1.1" xmlns="http://www.w3.org/2000/svg">
 <path d="m43.268 9.5271-4.348 9.527c-0.029 0.078-0.077 0.155-0.145 0.233-0.067 0.078-0.158 0.116-0.274 0.116h-0.592c-0.097 0-0.179-0.034-0.246-0.101-0.067-0.068-0.101-0.151-0.101-0.248 0-0.038 5e-3 -0.072 0.014-0.101l1.387-3.041-2.86-6.385c-0.01-0.029-0.014-0.063-0.014-0.102 0-0.096 0.033-0.179 0.101-0.247 0.067-0.068 0.149-0.102 0.245-0.102h0.593c0.115 0 0.206 0.039 0.274 0.117 0.067 0.077 0.116 0.155 0.144 0.232l2.225 4.946 2.253-4.946c0.029-0.077 0.077-0.155 0.145-0.232 0.067-0.078 0.159-0.117 0.274-0.117h0.593c0.096 0 0.178 0.034 0.245 0.102s0.101 0.151 0.101 0.247c0 0.039-5e-3 0.073-0.014 0.102zm-8.638 7.113h-0.535c-0.106 0-0.197-0.039-0.274-0.117-0.077-0.077-0.116-0.169-0.116-0.276v-0.596c-0.086 0.184-0.221 0.346-0.404 0.487s-0.393 0.259-0.629 0.356-0.481 0.17-0.736 0.218c-0.256 0.049-0.494 0.073-0.715 0.073-0.376 0-0.72-0.053-1.033-0.16-0.313-0.106-0.578-0.249-0.795-0.429-0.216-0.179-0.385-0.395-0.505-0.647-0.121-0.252-0.181-0.524-0.181-0.815 0-0.387 0.077-0.727 0.231-1.018s0.366-0.538 0.636-0.742c0.269-0.203 0.585-0.368 0.946-0.494s0.744-0.223 1.148-0.291l2.037-0.335v-0.189c0-0.494-0.161-0.865-0.484-1.112-0.322-0.248-0.724-0.371-1.206-0.371-0.424 0-0.744 0.077-0.96 0.232-0.217 0.156-0.403 0.34-0.557 0.553-0.057 0.078-0.12 0.131-0.187 0.16-0.068 0.029-0.159 0.044-0.275 0.044h-0.433c-0.106 0-0.2-0.039-0.282-0.117-0.082-0.077-0.118-0.169-0.108-0.276 0.019-0.213 0.103-0.431 0.253-0.655 0.149-0.223 0.351-0.421 0.606-0.596s0.549-0.317 0.881-0.429c0.333-0.111 0.687-0.167 1.062-0.167 0.433 0 0.835 0.063 1.206 0.189s0.689 0.31 0.954 0.552c0.264 0.243 0.471 0.544 0.621 0.902 0.149 0.359 0.224 0.771 0.224 1.237v4.436c0 0.107-0.039 0.199-0.116 0.276-0.077 0.078-0.168 0.117-0.274 0.117zm-0.925-3.622-1.704 0.276c-0.607 0.097-1.089 0.253-1.445 0.466s-0.534 0.49-0.534 0.829c0 0.107 0.024 0.213 0.072 0.32s0.125 0.209 0.231 0.305c0.106 0.097 0.243 0.175 0.412 0.233 0.168 0.058 0.378 0.087 0.628 0.087 0.347 0 0.665-0.053 0.954-0.16 0.288-0.106 0.536-0.254 0.743-0.443s0.366-0.415 0.477-0.677 0.166-0.552 0.166-0.872zm-6.717-1.105c-0.318 0.261-0.686 0.455-1.105 0.581s-0.864 0.189-1.336 0.189h-2.658v3.564c0 0.107-0.038 0.199-0.116 0.276-0.077 0.078-0.168 0.117-0.274 0.117h-0.592c-0.106 0-0.198-0.039-0.275-0.117-0.077-0.077-0.115-0.169-0.115-0.276v-9.396c0-0.107 0.038-0.199 0.115-0.277 0.077-0.077 0.169-0.116 0.275-0.116h3.64c0.472 0 0.917 0.061 1.336 0.182s0.787 0.308 1.105 0.56 0.571 0.572 0.759 0.96c0.187 0.388 0.281 0.848 0.281 1.381 0 0.534-0.094 0.997-0.281 1.39-0.188 0.392-0.441 0.72-0.759 0.982zm-0.903-3.724c-0.38-0.281-0.917-0.422-1.61-0.422h-2.586v3.607h2.586c0.693 0 1.23-0.15 1.61-0.451 0.381-0.3 0.571-0.761 0.571-1.382 0-0.62-0.19-1.071-0.571-1.352zm-12.18 8.502c-0.735 1.101-1.567 2.349-2.923 2.375-0.633 0.012-1.062-0.179-1.479-0.364-0.422-0.188-0.859-0.382-1.543-0.382-0.72 0-1.179 0.201-1.622 0.395-0.395 0.173-0.804 0.351-1.369 0.374-0.024 1e-3 -0.046 2e-3 -0.069 2e-3 -1.204 0-2.082-1.157-2.95-2.445-1.739-2.577-2.738-6.828-1.166-9.628 0.827-1.476 2.326-2.409 3.914-2.432 0.016-1e-3 0.032-1e-3 0.048-1e-3 0.683 0 1.327 0.263 1.896 0.494 0.426 0.174 0.793 0.323 1.076 0.323 0.252 0 0.618-0.148 1.04-0.319 0.613-0.248 1.376-0.556 2.172-0.556 0.102 0 0.203 5e-3 0.302 0.015 0.678 0.03 2.361 0.278 3.46 1.929 0.023 0.034 0.031 0.077 0.023 0.119-8e-3 0.041-0.032 0.077-0.067 0.1l-0.015 0.01c-0.319 0.202-1.91 1.321-1.89 3.432 0.022 2.599 2.116 3.553 2.355 3.653 2e-3 1e-3 9e-3 4e-3 0.011 5e-3 0.071 0.033 0.106 0.116 0.081 0.192l-5e-3 0.017c-0.13 0.426-0.514 1.542-1.28 2.692zm-6.146-12.043c-0.066 0-0.132-3e-3 -0.197-8e-3 -0.072-6e-3 -0.13-0.063-0.139-0.136-0.151-1.17 0.421-2.331 1.007-3.028 0.689-0.828 1.842-1.436 2.803-1.476 0.079-3e-3 0.149 0.058 0.158 0.139 0.111 1.043-0.257 2.208-0.986 3.116-0.692 0.859-1.706 1.393-2.646 1.393z"/>
</svg>
