<svg width="93.1" height="84.7" version="1.1" viewBox="0 0 93.1 84.7" xmlns="http://www.w3.org/2000/svg">
 <path d="m93.1 34c0-5.3-2.8-10.3-7.5-13.2-2.5-10.1-12.1-17.4-23.3-17.4-2.7 0-5.3 0.4-7.8 1.2-3.1-3-7.3-4.6-11.8-4.6-5.2 0-10.1 2.3-13.3 6.1-0.7-0.1-1.4-0.1-2.1-0.1-7.6 0-14.1 4.7-16.1 11.5-6.7 2.3-11.2 8.2-11.2 15 0 2 0.4 4 1.2 5.9-0.8 1.9-1.2 3.9-1.2 5.9 0 5.9 3.4 11.2 8.8 13.9 3.1 2.9 7.4 4.6 11.8 4.6 2.8 0 5.5-0.6 8-1.9 3.2 3.5 7.8 5.5 12.7 5.5 3.1 0 6-0.8 8.5-2.2 2.8 2.1 6.3 3.4 9.8 3.9 6 6.1 10.7 13.9 10.7 14l1.5 2.6 7.7-5.5-4.3-12.2c2.4-1.1 4.4-2.9 5.6-5.2 5.2-2.8 8.6-8.1 8.6-13.8 0-1.3-0.2-2.5-0.5-3.8 2.8-2.8 4.2-6.4 4.2-10.2zm-15.3 23.3-1 0.4-0.4 1c-0.9 2-2.8 3.5-5.1 3.9l-3.1 0.6 4.1 11.6c-2.2-3.2-5.5-7.6-9.4-11.3l-0.8-0.6-1-0.1c-2.4-0.2-4.6-0.9-6.6-2l7.9-6.3c2.1-1.6 4.8-2.3 5.8-2.1l3.6 1 1.4-5.1-3.6-1c-3.2-0.8-7.8 0.9-10.4 3.1l-8.9 7-1.8 1.4c-2 1.5-4.4 2.3-7 2.3-3.7 0-7.2-1.7-9.2-4.6v-7.9c0-2.1 1-4.2 1.6-4.5l3-1.8-3-4.9-3 1.8c-1.4 0.9-2.5 2.4-3.3 4.1-0.6-0.6-1.3-1.1-2-1.5l-8.9-5.4-2.9 4.7 8.8 5.4c2.1 1.3 3.6 4.1 3.6 5.8v3.5c-2 1-3.6 1.5-5.8 1.5-3.1 0-6.1-1.2-8.2-3.3l-0.3-0.3-0.4-0.2c-3.8-1.8-6.1-5.3-6.1-9.2 0-1.6 0.4-3.2 1.2-4.6l0.7-1.3-0.7-1.3c-0.8-1.4-1.2-3-1.2-4.6 0-4.8 3.5-8.9 8.6-10l1.8-0.4 0.3-1.8c0.9-5 5.5-8.7 11.1-8.7 0.9 0 1.8 0.1 2.7 0.3l1.9 0.4 1-1.6c2-3.2 5.7-5.1 9.7-5.1 2.6 0 5 0.8 7 2.2l-2 1.9-1.4 1.3c-1.9 1.5-4.3 2.3-5.2 2.1l-3.9-0.6-0.8 5.4 3.9 0.6h0.4c-0.6 2-0.9 4.1-0.5 5.9l0.9 5.2 5.4-0.9-0.9-5.2c-0.3-2 0.7-5 2.1-6.3l2.3-2.1c0.3-0.2 0.6-0.5 0.9-0.7l4.3-4c2.3-1 4.8-1.4 7.4-1.4 9 0 16.6 5.9 18.1 14.1l0.2 1.3 1.2 0.6c3.5 1.8 5.7 5.3 5.7 9 0 1.9-0.6 3.8-1.7 5.4l-0.8-0.9-3.6-3.6c-1.5-1.5-3.1-5-3.4-7.3l-0.6-5.4-5.3 0.6 0.6 5.4c0.2 1.5 0.7 3.3 1.4 4.9-0.4 0-0.7-0.1-1-0.1l-11.9-0.6-0.3 5.3 12 0.6c2.4 0.1 6 1.6 7.5 3.1l2.8 2.8 0.1 0.3c0.4 1.1 0.7 2.3 0.7 3.5 0 4-2.4 7.5-6.3 9.3z"/>
</svg>
