<svg xmlns="http://www.w3.org/2000/svg" width="19px" height="19px">
<path d="M9.500,-0.001 C4.261,-0.001 -0.001,4.262 -0.001,9.499 C-0.001,14.738 4.261,19.000 9.500,19.000 C14.738,19.000 19.000,14.738 19.000,9.499 C19.000,4.262 14.738,-0.001 9.500,-0.001 L9.500,-0.001 ZM9.054,0.883 C9.059,0.882 9.064,0.883 9.068,0.883 L9.068,1.516 C9.065,1.744 9.272,1.954 9.500,1.954 C9.727,1.954 9.934,1.744 9.931,1.516 L9.931,0.883 C14.359,1.099 17.900,4.640 18.117,9.068 C17.894,9.068 17.662,9.068 17.442,9.068 C17.216,9.079 17.020,9.294 17.031,9.520 C17.042,9.746 17.257,9.942 17.483,9.931 L18.117,9.931 C17.900,14.359 14.359,17.900 9.931,18.117 L9.931,17.483 C9.936,17.238 9.696,17.018 9.452,17.044 C9.240,17.068 9.063,17.269 9.068,17.483 L9.068,18.117 C4.640,17.900 1.099,14.359 0.883,9.931 L1.516,9.931 C1.744,9.934 1.954,9.728 1.954,9.499 C1.954,9.272 1.744,9.065 1.516,9.068 L0.883,9.068 C1.099,4.645 4.633,1.106 9.054,0.883 L9.054,0.883 ZM9.452,3.451 C9.240,3.475 9.063,3.677 9.068,3.890 L9.068,8.515 C8.689,8.683 8.421,9.062 8.421,9.499 C8.421,10.090 8.909,10.578 9.500,10.578 C9.696,10.578 9.879,10.517 10.039,10.423 C11.218,11.187 12.081,11.741 12.500,12.015 C12.688,12.151 12.987,12.096 13.115,11.901 C13.242,11.707 13.173,11.411 12.972,11.293 C12.551,11.018 11.701,10.473 10.551,9.729 C10.568,9.654 10.578,9.579 10.578,9.499 C10.578,9.062 10.310,8.683 9.931,8.515 L9.931,3.890 C9.935,3.659 9.723,3.448 9.493,3.451 C9.479,3.451 9.466,3.451 9.452,3.451 L9.452,3.451 Z"/>
</svg>