<svg  xmlns="http://www.w3.org/2000/svg" width="64px" height="64px">
<path d="M63.240,47.168 C63.072,47.243 62.894,47.280 62.717,47.280 C62.408,47.280 62.103,47.168 61.864,46.954 L51.898,38.050 L42.505,38.050 L42.505,51.042 C42.505,54.088 40.027,56.564 36.983,56.564 L10.081,56.564 L2.124,63.672 C1.885,63.886 1.580,63.997 1.271,63.997 C1.094,63.997 0.916,63.961 0.748,63.886 C0.287,63.680 -0.009,63.222 -0.009,62.717 L-0.009,30.937 C-0.009,27.891 2.468,25.415 5.513,25.415 L11.832,25.415 L11.832,6.533 C11.832,2.927 14.767,-0.009 18.374,-0.009 L57.456,-0.009 C61.063,-0.009 63.997,2.927 63.997,6.533 L63.997,45.999 C63.997,46.505 63.701,46.962 63.240,47.168 ZM5.513,27.975 C3.880,27.975 2.551,29.304 2.551,30.937 L2.551,59.857 L8.740,54.329 C8.974,54.120 9.278,54.004 9.592,54.004 L36.983,54.004 C38.616,54.004 39.944,52.675 39.944,51.042 L39.944,36.773 C39.944,36.772 39.944,36.771 39.944,36.770 C39.944,36.769 39.944,36.768 39.944,36.767 L39.944,30.937 C39.944,29.304 38.616,27.975 36.983,27.975 L5.513,27.975 ZM61.437,6.533 C61.437,4.338 59.651,2.552 57.456,2.552 L18.374,2.552 C16.178,2.552 14.393,4.338 14.393,6.533 L14.393,25.415 L36.983,25.415 C40.027,25.415 42.505,27.891 42.505,30.937 L42.505,35.490 L52.387,35.490 C52.701,35.490 53.005,35.606 53.240,35.815 L61.437,43.139 L61.437,6.533 ZM33.274,48.243 L9.221,48.243 C8.514,48.243 7.941,47.671 7.941,46.963 C7.941,46.256 8.514,45.683 9.221,45.683 L33.274,45.683 C33.981,45.683 34.554,46.256 34.554,46.963 C34.554,47.671 33.981,48.243 33.274,48.243 ZM33.274,42.269 L9.221,42.269 C8.514,42.269 7.941,41.697 7.941,40.989 C7.941,40.281 8.514,39.709 9.221,39.709 L33.274,39.709 C33.981,39.709 34.554,40.281 34.554,40.989 C34.554,41.697 33.981,42.269 33.274,42.269 ZM33.274,36.296 L9.221,36.296 C8.514,36.296 7.941,35.723 7.941,35.016 C7.941,34.308 8.514,33.736 9.221,33.736 L33.274,33.736 C33.981,33.736 34.554,34.308 34.554,35.016 C34.554,35.723 33.981,36.296 33.274,36.296 Z"/>
</svg>