<svg width="52.9" height="72" version="1.1" viewBox="0 0 52.9 72" xmlns="http://www.w3.org/2000/svg">
 <path d="m13 0c-2.2 0-4 1.8-4 4v6h2.5v-3.8008c0-2 1.6-3.6992 3.5-3.6992h25.801v7c0 2.4 2.0996 2.3008 2.0996 2.3008h7.5v42.1c0 2-1.6 3.6992-3.5 3.6992h-0.70117v2.4004h2.7012c2.2 0 4-1.8 4-4v-44.199-1.2012l-10.9-10.6h-1.0996-27.9zm29.699 4.1992 6 5.8008h-4.6992s-1.3008 0-1.3008-1.5v-4.3008zm-38.699 7.8008c-2.2 0-4 1.8-4 4v52c0 2.2 1.8 4 4 4h36c2.2 0 4-1.8 4-4v-44.199-1.2012l-11-10.6h-1.0996-27.9zm2 2.5h25.801v7c0 2.4 2.0996 2.3008 2.0996 2.3008h7.5v42h0.099609c0 2-1.6 3.6992-3.5 3.6992h-32c-2 0-3.5-1.5992-3.5-3.6992v-47.602c0-2 1.6-3.6992 3.5-3.6992zm27.699 1.6992 6 5.8008h-4.6992s-1.3008 0-1.3008-1.5v-4.3008zm-26.5 6.7012v2h16.801v-2h-16.801zm0 8v2h29.5v-2h-29.5zm0 8v2h29.5v-2h-29.5zm0 8v2h29.5v-2h-29.5zm0 8v2h29.5v-2h-29.5z"/>
</svg>
