<svg  xmlns="http://www.w3.org/2000/svg" width="17px" height="17px">
<path d="M8.496,-0.004 C3.803,-0.004 0.002,3.803 0.002,8.503 C0.002,13.203 3.803,17.010 8.496,17.010 C13.189,17.010 16.990,13.203 16.990,8.503 C16.990,3.803 13.189,-0.004 8.496,-0.004 ZM8.496,2.123 C9.196,2.123 9.855,2.314 10.492,2.527 C10.046,2.952 9.536,3.335 9.621,3.718 C9.706,4.101 11.086,3.994 11.086,4.781 C11.086,5.356 10.194,5.526 10.810,6.185 C11.553,6.930 9.451,8.269 9.409,9.248 C9.345,11.013 11.192,11.311 12.658,11.311 C13.550,11.311 13.783,11.736 13.719,12.246 C12.573,13.884 10.619,14.905 8.474,14.905 C7.667,14.905 6.924,14.713 6.223,14.437 C6.691,13.501 5.629,11.651 4.631,11.055 C4.142,10.566 3.102,10.757 2.507,10.524 C2.316,9.949 2.125,9.375 2.104,8.737 C2.168,8.631 2.274,8.546 2.444,8.546 C2.847,8.546 3.399,9.354 3.696,9.269 C4.079,9.184 2.125,6.483 3.038,5.951 C3.463,5.696 4.312,6.780 4.036,5.611 C3.781,4.526 4.801,5.015 5.438,4.739 C5.990,4.505 6.393,3.867 5.714,3.484 C5.586,3.420 5.438,3.271 5.247,3.080 C6.202,2.506 7.306,2.144 8.496,2.144 L8.496,2.123 ZM13.401,4.441 C13.783,4.909 14.080,5.419 14.335,5.972 C14.335,5.993 14.335,6.015 14.335,6.036 C14.250,6.185 14.102,6.270 13.868,6.504 C13.273,7.099 13.189,6.057 12.934,5.845 C12.658,5.590 11.660,5.887 11.532,5.568 C11.384,5.185 12.594,4.675 13.401,4.441 Z"/>
</svg>