<svg xmlns="http://www.w3.org/2000/svg" width="63px" height="82px">
<path d="M51.921,12.449 L58.410,3.372 L61.061,5.191 L54.573,14.268 L51.921,12.449 ZM63.006,36.682 C63.006,41.388 53.684,81.999 43.909,81.999 C41.177,81.999 40.679,78.456 39.993,73.555 C38.835,65.286 37.396,58.443 31.498,58.443 C25.600,58.443 24.162,65.286 23.003,73.555 C22.316,78.456 21.820,81.999 19.089,81.999 C9.314,81.999 -0.008,41.388 -0.008,36.682 C-0.008,29.653 10.700,20.681 19.089,20.681 C21.462,20.681 23.702,21.658 25.872,22.605 C29.273,24.843 33.719,24.843 37.120,22.605 C39.287,21.658 41.531,20.681 43.903,20.681 C52.291,20.681 63.000,29.653 63.006,36.682 ZM43.907,23.347 C42.121,23.347 40.238,24.176 38.244,25.035 C34.126,27.587 28.877,27.587 24.758,25.035 C22.766,24.176 20.882,23.347 19.096,23.347 C11.669,23.347 2.737,31.537 2.737,36.682 C2.737,44.131 13.046,79.334 19.096,79.334 C19.494,78.885 19.955,75.595 20.292,73.194 C21.261,66.262 22.731,55.777 31.498,55.777 C40.265,55.777 41.736,66.252 42.706,73.194 C43.029,75.497 43.468,78.631 44.046,79.324 L44.046,79.324 C50.108,78.797 60.260,44.072 60.264,36.682 C60.264,31.537 51.331,23.347 43.907,23.347 ZM29.883,0.000 L33.119,0.000 L33.119,11.149 L29.883,11.149 L29.883,0.000 ZM1.825,6.484 L4.477,4.666 L10.934,13.700 L8.283,15.518 L1.825,6.484 Z"/>
</svg>