<svg xmlns="http://www.w3.org/2000/svg" width="33px" height="37px">
<path d="M32.775,29.756 C32.423,30.051 24.068,36.996 16.491,36.996 C8.955,36.996 0.616,31.390 0.264,31.152 C-0.035,30.948 -0.090,30.570 0.142,30.306 C0.376,30.044 0.808,29.999 1.106,30.199 C1.189,30.256 9.429,35.792 16.491,35.792 C23.514,35.792 31.742,28.956 31.825,28.886 C32.099,28.656 32.532,28.665 32.797,28.905 C33.058,29.145 33.049,29.526 32.775,29.756 ZM22.719,31.389 C21.349,31.389 21.098,29.574 20.755,27.064 C20.173,22.828 19.452,19.324 16.493,19.324 C13.533,19.324 12.812,22.828 12.231,27.064 C11.886,29.574 11.637,31.389 10.267,31.389 C5.363,31.389 0.685,10.589 0.685,8.179 C0.685,4.580 6.058,-0.013 10.267,-0.013 C11.457,-0.013 12.581,0.487 13.670,0.971 C14.663,1.414 15.603,1.831 16.491,1.831 C17.379,1.831 18.319,1.414 19.313,0.971 C20.400,0.487 21.526,-0.013 22.716,-0.013 C26.925,-0.013 32.297,4.580 32.300,8.179 C32.300,10.589 27.623,31.389 22.719,31.389 ZM22.716,1.352 C21.820,1.352 20.874,1.773 19.875,2.217 C18.792,2.700 17.672,3.197 16.491,3.197 C15.311,3.197 14.190,2.698 13.109,2.217 C12.110,1.773 11.164,1.352 10.268,1.352 C6.542,1.352 2.061,5.545 2.061,8.179 C2.061,11.993 7.233,30.023 10.268,30.023 C10.470,29.794 10.701,28.108 10.870,26.879 C11.356,23.328 12.094,17.958 16.493,17.958 C20.891,17.958 21.629,23.327 22.115,26.879 C22.278,28.061 22.497,29.666 22.788,30.021 C25.829,29.748 30.923,11.963 30.923,8.179 C30.923,5.545 26.441,1.352 22.716,1.352 Z"/>
</svg>