<svg width="76" height="68.6" version="1.1" viewBox="0 0 76 68.6" xmlns="http://www.w3.org/2000/svg">
 <g transform="translate(-12,-968.1)">
  <path d="m34.2 968.1c-13.2 0-22.2 12-22.2 24.8 0 10.6 4.4 18.5 11.1 24.9s15.5 11.6 25.3 17.8l1.6 1.1 1.6-1.1c9.8-6.2 18.6-11.4 25.3-17.8s11.1-14.3 11.1-24.9c0-12.8-8.9-24.8-22.2-24.8-6.9 0-12.4 2.9-15.8 5.6-3.5-2.7-9-5.6-15.8-5.6zm0 6c6.2 0 11.8 3.7 13.7 5.6l2.1 2.1 2.1-2.1c1.9-1.9 7.5-5.6 13.7-5.6 9.6 0 16.2 8.7 16.2 18.8 0 9-3.3 14.9-9.2 20.6-5.6 5.3-13.6 10.3-22.8 16.1-9.1-5.8-17.2-10.8-22.8-16.1-5.9-5.7-9.2-11.6-9.2-20.6 0-10.1 6.6-18.8 16.2-18.8z"/>
 </g>
</svg>
