<svg xmlns="http://www.w3.org/2000/svg" width="29px" height="32px">
<path d="M12.333,31.568 L12.264,30.209 L11.547,30.209 C11.061,30.209 10.666,29.815 10.666,29.331 L10.666,28.228 C10.666,27.745 11.061,27.351 11.547,27.351 L12.119,27.351 L12.066,26.305 L11.067,26.305 C10.581,26.305 10.186,25.911 10.186,25.427 L10.186,24.327 C10.186,23.844 10.581,23.450 11.067,23.450 L11.921,23.450 L11.868,22.406 L10.347,22.406 C9.861,22.406 9.466,22.012 9.466,21.529 L9.466,20.426 C9.466,19.942 9.861,19.548 10.347,19.548 L11.724,19.548 L11.672,18.504 L9.509,18.504 C9.023,18.504 8.627,18.110 8.627,17.626 L8.627,16.525 C8.627,16.041 9.023,15.647 9.509,15.647 L11.527,15.647 L11.452,14.169 C8.518,14.134 5.585,14.050 2.652,13.921 L2.652,13.894 L2.641,13.894 C2.125,12.247 1.458,10.611 0.571,9.055 C0.550,9.018 0.532,8.978 0.517,8.937 C-1.323,3.857 1.812,-1.616 8.162,0.665 C9.014,0.972 9.903,1.372 10.813,1.784 L12.982,2.710 L13.609,2.287 C15.480,1.135 18.336,0.060 20.279,0.008 C23.865,-0.088 26.425,0.732 27.826,2.417 C29.249,4.129 29.271,6.478 28.380,8.937 C28.365,8.978 28.347,9.018 28.326,9.055 C27.438,10.611 26.772,12.247 26.256,13.894 L26.243,13.894 L26.243,13.921 C23.125,14.067 20.008,14.151 16.891,14.179 L16.817,15.647 L18.853,15.647 C19.338,15.647 19.734,16.041 19.734,16.525 L19.734,17.626 C19.734,18.110 19.338,18.504 18.853,18.504 L16.672,18.504 L16.619,19.548 L18.016,19.548 C18.501,19.548 18.897,19.942 18.897,20.426 L18.897,21.529 C18.897,22.012 18.501,22.406 18.016,22.406 L16.474,22.406 L16.421,23.450 L17.296,23.450 C17.781,23.450 18.177,23.844 18.177,24.327 L18.177,25.427 C18.177,25.911 17.781,26.305 17.296,26.305 L16.276,26.305 L16.223,27.351 L16.814,27.351 C17.300,27.351 17.695,27.745 17.695,28.228 L17.695,29.331 C17.695,29.815 17.300,30.209 16.814,30.209 L16.079,30.209 L16.010,31.568 C15.998,31.808 15.856,31.994 15.686,31.994 L12.659,31.994 C12.488,31.994 12.345,31.808 12.333,31.568 ZM25.074,12.578 C25.380,11.693 25.733,10.809 26.142,9.938 L26.947,8.383 L27.191,7.615 C27.683,5.795 27.457,4.373 26.643,3.392 C25.691,2.246 23.727,1.446 20.321,1.536 C18.946,1.573 16.851,2.282 15.222,3.131 L14.803,3.367 L14.742,3.492 C16.090,4.169 17.906,4.202 19.361,4.243 L19.494,4.503 C15.102,6.037 11.214,3.386 7.641,2.103 C3.048,0.454 0.738,3.758 1.720,7.637 L1.950,8.385 L2.755,9.938 C3.162,10.809 3.515,11.693 3.822,12.578 C10.905,12.920 17.989,12.945 25.074,12.578 Z"/>
</svg>