<svg width="84.246" height="105.15" preserveAspectRatio="none" version="1.1" viewBox="0 0 84.246 105.15" xmlns="http://www.w3.org/2000/svg">
 <path d="m0.0019531 0.0058594c0 4.6492 5.8739 18.053 12.422 24.59-0.56132 4.2159 1.9832 16.516 3.5352 19.508 1.5533 2.9973 3.5455 4.7631 3.9922 6.8711 0.43999 2.1026 1.2169 16.631 2.6582 26.369 1.4413 9.7531 3.8818 15.961 6.4258 21.943 2.5453 5.9825 8.6419 5.9826 8.8672 1.1094 0.21466-4.8799 0.56145-13.184 1.1055-19.836 0.55865-6.6465 1.7734-17.736 8.0879-26.045 9.8704 5.7679 31.579 11.752 36.127 11.752-14.181-2.5466-41.268-16.641-60.613-34.574-12.664-11.746-20.549-27.792-22.605-31.687h-0.0019531zm27.437 0.23242c-7.9159-0.10793-15.016 4.9822-15.016 8.4043 9.5211 18.061 52.846 39.005 62.043 42.332 10.634-14.078 10.969-30.076 8.5371-38.266-2.4399-8.2038-8.5014-11.012-14.486-12.049-5.9785-1.028-11.302 2.2994-16.248 5.4727-4.9479 3.1786-11.525 6.0493-17.725 6.5 6.1998-1.3986 12.175-5.4692 11.736-5.9785-0.43999-0.52265-2.8057-0.59867-4.875-1.1934-2.0666-0.58265-3.8426-4.2383-12.373-5.1289-0.5325-0.055431-1.0646-0.086448-1.5918-0.09375h-0.001953zm21.283 60.564c0.47732 1.14 0.89864 2.4612 1.2812 3.8945 7.3705 2.8559 15.443 4.0533 21.027 4.252 0.112-1.2026 0.16772-2.244 0.15039-3.0547-10.936-0.22533-18.25-3.3185-22.459-5.0918zm2.209 7.4941c0.21466 1.1826 0.41118 2.4047 0.58984 3.666 6.5465 2.1746 13.497 3.0013 18.604 3.0586 0.18666-1.14 0.34586-2.2335 0.50586-3.2734-4.7439-0.02667-12.431-0.70054-19.697-3.4512h-0.001953zm0.81445 7.1855c0.17866 1.1706 0.34391 2.3647 0.50391 3.5566 5.9479 1.7 12.141 2.2951 16.939 2.3164 0.17866-1.1026 0.35564-2.2132 0.51562-3.2852-4.5666 0.036001-11.364-0.46527-17.959-2.5879zm0.84961 6.6719c0.08266 1.1453 0.16948 2.296 0.24414 3.4199 4.9665 1.2026 10.044 1.6951 14.32 1.7324 0.23333 0 0.46803-0.001113 0.69336-0.007813 0.24399-1.0826 0.49384-2.1846 0.72852-3.2832-4.3026 0.07866-10.158-0.28673-15.986-1.8613zm0.50391 6.6934c0.076 1.1773 0.16886 2.3062 0.24219 3.4102 4.4172 1.04 8.8974 1.492 12.799 1.5547 0.28933-1.0306 0.57848-2.1246 0.86914-3.2539-3.9666-0.01067-8.9331-0.40834-13.91-1.7109zm0.46875 6.207c0.104 1.2253 0.18835 2.3613 0.29102 3.3906 3.5172 0.71198 7.0623 1.0253 10.307 1.1133 0.36799-0.87331 0.75839-1.9755 1.1504-3.2461-3.4986-0.0093-7.6028-0.33118-11.748-1.2578zm0.51562 5.9336c0.16 1.244 0.34493 2.2329 0.54492 2.8809 0.072 0.21467 0.15642 0.38046 0.23242 0.56445 1.8893 0.33866 3.7702 0.57013 5.6035 0.7168 0.91464-0.80532 1.8345-1.8936 2.6465-3.1016-2.7986-0.1-5.8954-0.41251-9.0273-1.0606z"/>
</svg>
