<svg width="27.715" height="17.273" version="1.1" xmlns="http://www.w3.org/2000/svg">
 <path d="m19.076 0c-1.894 0-3.722 0.619-5.218 1.754-1.497-1.135-3.325-1.754-5.219-1.754-4.763 0-8.639 3.874-8.639 8.636s3.876 8.637 8.639 8.637c1.894 0 3.722-0.619 5.219-1.755 1.496 1.136 3.324 1.755 5.218 1.755 4.764 0 8.639-3.875 8.639-8.637s-3.875-8.636-8.639-8.636zm-5.218 3.951c0.267 0.298 0.509 0.619 0.723 0.958h-1.446c0.213-0.339 0.455-0.66 0.723-0.958zm-1.476 2.581h2.951c0.133 0.421 0.225 0.853 0.275 1.293h-3.501c0.051-0.44 0.143-0.872 0.275-1.293zm-0.275 2.916h3.501c-0.05 0.439-0.142 0.871-0.275 1.292h-2.951c-0.132-0.421-0.224-0.853-0.275-1.292zm1.751 3.874c-0.268-0.299-0.51-0.62-0.723-0.958h1.446c-0.214 0.338-0.456 0.659-0.723 0.958zm5.218 2.327c-1.44 0-2.832-0.439-4.001-1.252 0.67-0.749 1.21-1.614 1.583-2.542 0.412-1.024 0.621-2.107 0.621-3.219 0-1.111-0.209-2.194-0.621-3.218-0.373-0.929-0.913-1.794-1.583-2.542 1.169-0.813 2.561-1.253 4.001-1.253 3.868 0 7.015 3.146 7.015 7.013s-3.147 7.013-7.015 7.013z"/>
</svg>
