<svg width="22" height="15" version="1.1" xmlns="http://www.w3.org/2000/svg">
 <path d="m20.939 8.562h-19.878c-0.586 0-1.061-0.474-1.061-1.06v-4e-3c0-0.586 0.475-1.061 1.061-1.061h19.878c0.586 0 1.061 0.475 1.061 1.061v4e-3c0 0.586-0.475 1.06-1.061 1.06zm-0.012-6.406h-19.854c-0.593 0-1.073-0.48-1.073-1.073v-0.01c0-0.593 0.48-1.073 1.073-1.073h19.854c0.592 0 1.073 0.48 1.073 1.073v0.01c0 0.593-0.481 1.073-1.073 1.073zm-19.854 10.688h11.354c0.592 0 1.073 0.48 1.073 1.073v0.01c0 0.593-0.481 1.073-1.073 1.073h-11.354c-0.593 0-1.073-0.48-1.073-1.073v-0.01c0-0.593 0.48-1.073 1.073-1.073z"/>
</svg>
