<svg xmlns="http://www.w3.org/2000/svg" width="66px" height="65px">
<path d="M46.001,64.998 C43.139,64.998 42.617,61.242 41.899,56.047 C40.686,47.282 39.178,40.028 32.999,40.028 C26.821,40.028 25.314,47.282 24.100,56.047 C23.379,61.242 22.860,64.998 19.999,64.998 C9.759,64.998 -0.008,21.949 -0.008,16.961 C-0.008,9.510 11.211,-0.000 19.999,-0.000 C22.485,-0.000 24.832,1.035 27.105,2.038 C30.668,4.412 35.326,4.412 38.889,2.038 C41.159,1.035 43.510,-0.000 45.995,-0.000 C54.783,-0.000 66.001,9.510 66.007,16.961 C66.007,21.949 56.241,64.998 46.001,64.998 ZM45.999,2.825 C44.128,2.825 42.155,3.705 40.067,4.615 C35.752,7.320 30.253,7.320 25.938,4.615 C23.851,3.705 21.877,2.825 20.006,2.825 C12.226,2.825 2.869,11.507 2.869,16.961 C2.869,24.857 13.669,62.173 20.006,62.173 C20.424,61.697 20.906,58.210 21.259,55.664 C22.275,48.317 23.815,37.202 32.999,37.202 C42.184,37.202 43.725,48.306 44.741,55.664 C45.079,58.106 45.538,61.428 46.144,62.163 L46.144,62.163 C52.495,61.604 63.131,24.795 63.135,16.961 C63.135,11.507 53.776,2.825 45.999,2.825 ZM39.697,26.198 L37.300,28.574 L34.697,25.995 L34.697,29.657 L31.307,29.657 L31.307,26.409 L29.344,28.354 L26.947,25.978 L29.032,23.911 L25.723,23.911 L25.723,20.550 L29.085,20.550 C29.094,20.529 29.108,20.511 29.118,20.489 L26.676,18.069 L29.073,15.692 L31.307,17.906 L31.307,14.805 L34.697,14.805 L34.697,18.272 L37.546,15.448 L39.944,17.824 L37.193,20.550 L40.707,20.550 L40.707,23.911 L37.390,23.911 L39.697,26.198 Z"/>
</svg>