<svg xmlns="http://www.w3.org/2000/svg" width="32px" height="32px">
<path d="M22.302,31.996 C20.915,31.996 20.661,30.147 20.314,27.588 C19.725,23.273 18.995,19.701 16.000,19.701 C13.005,19.701 12.275,23.273 11.686,27.588 C11.337,30.147 11.085,31.996 9.698,31.996 C4.735,31.996 0.001,10.801 0.001,8.345 C0.001,4.678 5.439,-0.002 9.698,-0.002 C10.903,-0.002 12.041,0.507 13.143,1.001 C14.148,1.452 15.100,1.878 15.999,1.878 C16.897,1.878 17.849,1.452 18.854,1.001 C19.955,0.507 21.094,-0.002 22.299,-0.002 C26.558,-0.002 31.996,4.678 31.999,8.345 C31.999,10.801 27.265,31.996 22.302,31.996 ZM9.700,30.604 C9.904,30.371 10.138,28.652 10.309,27.400 C10.802,23.782 11.548,18.310 16.000,18.310 C20.451,18.310 21.198,23.781 21.691,27.400 C21.855,28.605 22.078,30.240 22.371,30.601 C24.889,30.374 28.794,18.215 30.134,11.682 L19.100,11.682 L19.100,14.030 L13.014,14.030 L13.014,11.682 L1.865,11.682 C3.217,18.277 7.183,30.604 9.700,30.604 ZM22.299,1.389 C21.392,1.389 20.435,1.818 19.423,2.270 C18.327,2.762 17.193,3.269 15.999,3.269 C14.804,3.269 13.670,2.761 12.575,2.270 C11.564,1.818 10.607,1.389 9.700,1.389 C5.929,1.389 1.394,5.662 1.394,8.345 C1.394,8.807 1.469,9.477 1.604,10.291 L13.014,10.291 L13.014,7.944 L19.100,7.944 L19.100,10.291 L30.271,10.291 C30.313,10.291 30.350,10.308 30.390,10.315 C30.528,9.489 30.605,8.811 30.605,8.345 C30.605,5.662 26.069,1.389 22.299,1.389 Z"/>
</svg>