<svg width="466.37" height="532.59" version="1.1" viewBox="0 0 466.37 532.59" preserveAspectRatio="none" xmlns="http://www.w3.org/2000/svg">
 <path d="m234.9 0.0019531c-18.266-0.0074009-39.652 0.006643-64.203 0.042969l-145.96 0.2168-6.2539 3.0898c-7.532 3.7226-12.224 8.5151-15.869 16.209l-2.6191 5.5293v482.48l1.9199 4.7558c3.3899 8.3947 12.281 16.53 21.076 19.287 2.8567 0.8955 41.057 1.0663 211.21 0.93946l207.72-0.15625 4.7109-2.3125c7.2999-3.5848 12.575-8.8445 16.172-16.123l3.1172-6.3047 0.2168-179.28 0.21875-179.24c-0.0541-3.1e-4 -0.10816 5.5e-4 -0.16211 0-0.38863 2e-3 -0.7777 0.0189-1.166-6e-3 -0.0642-4e-3 -0.12729-6e-3 -0.1914-0.0117-0.0193-2e-3 -0.0753-0.0151-0.0977-0.0117-0.25983 0.039-0.50788 0.1409-0.77539 0.13085h-5.3027c-6.8272 0.30392-22.548 0.37133-55.389 0.33594-57.91-0.0624-60.873-0.13971-65.285-1.6797-6.0037-2.0955-13.47-8.2425-16.996-13.992-5.152-8.3998-5.2477-9.7196-5.2637-73.299-8e-3 -31.445 0.22803-57.414 0.52344-57.709 4e-3 -0.00427 0.10138 0.084587 0.12695 0.10156 0.0223-0.13096 0.0421-0.26239 0.0703-0.39258 0.0427-0.197 0.0995-0.39195 0.1543-0.58594 0.0241-0.085428 1e-3 -0.21658 0.082-0.25195 0.0277-0.012035 0.0569-0.022708 0.0859-0.033203 2.9e-4 -0.086599 4e-5 -0.17322 0-0.25977-0.59871-0.062004-0.89581-0.39252-0.63867-0.80859 0.261-0.42219-26.441-0.64186-81.238-0.66406zm-112.89 233.11 18.875 0.26172 18.877 0.26367 5.5 2.709c10.765 5.3034 16.919 14.835 17.818 27.59 0.90339 12.81-3.5505 23.04-12.982 29.818-5.9473 4.274-11.505 5.7835-23.584 6.4043l-9.9688 0.51367-0.41211 13.281c-0.44975 14.437-1.2012 16.992-5.4766 18.617-4.1269 1.569-8.3817 0.95675-11.27-1.623l-2.7031-2.416-0.22851-44.818-0.22656-44.82 2.8906-2.8906zm203.24 0.11133c11.254 0 19.351 0.33918 20.309 0.85156 4.6528 2.4901 5.4251 12.26 1.2949 16.395-2.1654 2.1676-2.4017 2.2058-15.012 2.4668l-12.811 0.26563v28.021h10.385c11.437 0 14.063 0.75034 16.127 4.6074 2.4365 4.554 0.69574 12.277-3.1836 14.129-0.76925 0.36713-6.239 0.86347-12.156 1.1035l-10.758 0.43554-0.45313 12.414c-0.47446 13.03-0.94502 14.838-4.6191 17.729-2.5488 2.0049-7.1353 2.217-10.338 0.47656-4.8351-2.6276-4.8672-2.948-4.8672-48.312-1e-5 -36.315 0.16613-41.86 1.3437-44.803 2.2009-5.5005 3.3893-5.7793 24.738-5.7793zm-94.953 0.10938c14.91 0.0164 20.195 1.0781 28.244 4.8848 6.3287 2.993 15.442 11.753 18.486 17.77 3.6582 7.2307 5.6665 15.183 6.1699 24.424 1.3604 24.969-9.9604 43.331-31 50.281-5.9977 1.9814-7.603 2.1307-25.029 2.3398-19.46 0.23357-20.604 0.13902-23.871-2.002-4.1871-2.7435-4.2656-3.6317-4.2656-47.738 0-43.788 0.0492-44.378 4.1074-48 1.7155-1.5312 3.2242-1.6742 20.143-1.9082 2.5591-0.0354 4.8856-0.0531 7.0156-0.0508zm-81.836 19.066c-1.1245-0.017-2.4491 8.4e-4 -4.0508 0.0469l-7.8633 0.22656-0.22851 12.793c-0.12616 7.0361-0.044 13.273 0.18164 13.861 0.29705 0.77413 2.668 1.0684 8.5898 1.0684 7.1224 0 8.5308-0.23991 10.906-1.8613 8.1588-5.5691 7.6692-20.204-0.82812-24.76-1.7703-0.94907-3.3334-1.324-6.707-1.375zm72.914 0.6875v29.654c0 16.31 0.27971 29.947 0.62109 30.305s4.7758 0.4511 9.8555 0.20898c14.028-0.66863 20.641-4.1554 25.039-13.207 5.0923-10.481 5.0413-23.416-0.13281-33.684-4.9118-9.7466-12.052-13.277-26.844-13.277z" fill="#e0564b" />
 <path d="m316.13 0.02779c-0.30191 0.30194-0.54313 26.847-0.53496 58.988 0.0164 64.986 0.11416 66.333 5.3795 74.919 3.6041 5.877 11.236 12.162 17.372 14.304 4.5092 1.5741 7.5356 1.6511 66.719 1.7149 51.225 0.0552 61.879-0.12699 61.32-1.0521-1.518-2.5128-149.75-149.38-150.26-148.87z" fill="#b43528"/>
</svg>
