<svg xmlns="http://www.w3.org/2000/svg" width="12px" height="12px">
<path d="M11.729,9.292 L9.876,7.474 C9.507,7.113 8.896,7.124 8.514,7.499 L7.581,8.415 C7.522,8.383 7.461,8.349 7.397,8.314 C6.808,7.994 6.001,7.554 5.152,6.721 C4.301,5.885 3.852,5.093 3.525,4.514 C3.490,4.452 3.457,4.393 3.425,4.337 L4.051,3.723 L4.359,3.421 C4.741,3.045 4.752,2.446 4.384,2.084 L2.531,0.266 C2.163,-0.095 1.552,-0.085 1.169,0.291 L0.647,0.806 L0.661,0.820 C0.486,1.039 0.340,1.292 0.231,1.565 C0.131,1.824 0.068,2.072 0.040,2.320 C-0.205,4.310 0.722,6.129 3.237,8.598 C6.713,12.009 9.515,11.751 9.636,11.739 C9.899,11.708 10.151,11.646 10.408,11.548 C10.684,11.442 10.941,11.299 11.164,11.128 L11.176,11.138 L11.705,10.629 C12.086,10.254 12.097,9.654 11.729,9.292 Z"/>
</svg>