<svg xmlns="http://www.w3.org/2000/svg" width="21px" height="21px">
<path d="M6.734,7.389 C8.425,9.615 10.384,11.574 12.609,13.266 L14.034,11.841 C14.746,11.129 15.903,11.129 16.615,11.841 L19.464,14.690 C20.177,15.402 20.177,16.649 19.464,17.361 L17.417,19.409 C14.746,21.991 7.891,15.491 6.199,13.800 C4.508,12.108 -1.991,5.252 0.591,2.671 L2.638,0.534 C3.440,-0.179 4.597,-0.179 5.309,0.534 L8.158,3.383 C8.870,4.095 8.870,5.342 8.158,6.054 L6.734,7.389 ZM18.930,15.314 L16.081,12.464 C15.636,12.019 15.013,12.019 14.568,12.464 L12.698,14.334 C10.028,12.375 7.624,10.060 5.665,7.300 L7.535,5.430 C7.980,5.074 7.980,4.362 7.535,4.006 L4.775,1.157 C4.330,0.712 3.618,0.712 3.261,1.157 L1.748,2.671 L1.125,3.205 C-1.724,6.143 13.856,21.813 16.794,18.875 L17.328,18.341 L18.930,16.827 C19.286,16.382 19.286,15.670 18.930,15.314 Z"/>
</svg>