<svg xmlns="http://www.w3.org/2000/svg" width="65px" height="65px">
  <path d="M45.295,64.999 C42.478,64.999 41.964,61.242 41.257,56.048 C40.062,47.282 38.578,40.028 32.495,40.028 C26.411,40.028 24.928,47.282 23.733,56.048 C23.023,61.242 22.512,64.999 19.695,64.999 C9.613,64.999 -0.002,21.949 -0.002,16.961 C-0.002,9.511 11.043,0.000 19.695,0.000 C22.142,0.000 24.453,1.035 26.691,2.039 C30.199,4.412 34.785,4.412 38.293,2.039 C40.528,1.035 42.843,0.000 45.289,0.000 C53.941,0.000 64.986,9.511 64.992,16.961 C64.992,21.949 55.377,64.999 45.295,64.999 ZM19.702,62.174 C20.113,61.698 20.588,58.210 20.935,55.665 C21.936,48.317 23.452,37.203 32.495,37.203 C41.537,37.203 43.054,48.307 44.055,55.665 C44.388,58.107 44.840,61.429 45.436,62.163 L45.436,62.164 C50.163,61.741 57.298,40.608 60.502,26.931 L42.824,26.931 L40.396,26.931 L40.396,24.487 L40.396,20.277 L24.594,20.277 L24.594,24.487 L24.594,26.931 L22.166,26.931 L4.490,26.931 C7.725,40.747 14.973,62.174 19.702,62.174 ZM45.293,2.825 C43.451,2.825 41.508,3.705 39.453,4.616 C35.205,7.320 29.790,7.320 25.543,4.616 C23.488,3.705 21.544,2.825 19.702,2.825 C12.042,2.825 2.830,11.508 2.830,16.961 C2.830,18.507 3.241,21.188 3.943,24.487 L22.166,24.487 L22.166,20.277 L22.166,17.833 L24.594,17.833 L40.396,17.833 L42.824,17.833 L42.824,20.277 L42.824,24.487 L61.049,24.487 C61.751,21.188 62.164,18.506 62.165,16.961 C62.165,11.508 52.950,2.825 45.293,2.825 Z"/>
</svg>