<svg xmlns="http://www.w3.org/2000/svg" width="32px" height="32px">
<path d="M22.301,31.996 C20.914,31.996 20.661,30.147 20.313,27.589 C19.725,23.273 18.995,19.702 16.000,19.702 C13.005,19.702 12.274,23.273 11.686,27.589 C11.337,30.147 11.085,31.996 9.698,31.996 C4.735,31.996 0.001,10.801 0.001,8.345 C0.001,4.678 5.439,-0.002 9.698,-0.002 C10.903,-0.002 12.041,0.507 13.143,1.001 C14.148,1.452 15.100,1.878 15.998,1.878 C16.897,1.878 17.848,1.452 18.854,1.001 C19.955,0.507 21.094,-0.002 22.299,-0.002 C26.558,-0.002 31.996,4.678 31.999,8.345 C31.999,10.801 27.265,31.996 22.301,31.996 ZM22.299,1.390 C21.392,1.390 20.435,1.818 19.423,2.270 C18.327,2.762 17.193,3.269 15.998,3.269 C14.803,3.269 13.670,2.761 12.575,2.270 C11.564,1.818 10.607,1.390 9.700,1.390 C5.928,1.390 1.393,5.662 1.393,8.345 C1.393,12.232 6.628,30.604 9.700,30.604 C9.904,30.371 10.138,28.653 10.309,27.401 C10.801,23.782 11.548,18.311 16.000,18.311 C20.451,18.311 21.198,23.781 21.691,27.401 C21.855,28.605 22.077,30.240 22.371,30.602 C25.449,30.324 30.605,12.202 30.605,8.345 C30.605,5.662 26.068,1.390 22.299,1.390 ZM15.613,12.402 L16.384,11.245 L19.978,13.642 L25.157,5.873 L26.315,6.644 L20.365,15.570 L15.613,12.402 Z"/>
</svg>