<svg width="512" height="341.34" version="1.1" viewBox="0 0 512 341.34" xmlns="http://www.w3.org/2000/svg">
 <rect y=".0030002" width="512" height="341.34" fill="#f0f0f0"/>
 <polygon transform="translate(0,-85.33)" points="224 224 0 224 0 288 224 288 224 426.66 288 426.66 288 288 512 288 512 224 288 224 288 85.33 224 85.33" fill="#d80027"/>
 <g fill="#0052b4">
  <polygon transform="translate(0,-85.33)" points="512 381.03 512 315.36 393.78 315.36"/>
  <polygon transform="translate(0,-85.33)" points="311.65 315.36 512 426.66 512 395.19 368.31 315.36"/>
  <polygon transform="translate(0,-85.33)" points="311.65 345 311.65 426.66 458.63 426.66"/>
 </g>
 <polygon transform="translate(0,-85.33)" points="512 395.19 368.31 315.36 311.65 315.36 512 426.66" fill="#f0f0f0"/>
 <polygon transform="translate(0,-85.33)" points="512 395.19 368.31 315.36 311.65 315.36 512 426.66" fill="#d80027"/>
 <polygon transform="translate(0,-85.33)" points="0 365.55 0 315.36 90.341 315.36" fill="#0052b4"/>
 <polygon transform="translate(0,-85.33)" points="200.35 426.66 25.491 426.66 200.35 329.51" fill="#0052b4"/>
 <polygon transform="translate(0,-85.33)" points="0 426.66 0 426.66 200.35 315.36 143.69 315.36 0 395.19" fill="#d80027"/>
 <g fill="#0052b4">
  <polygon transform="translate(0,-85.33)" points="0 130.96 0 196.63 118.22 196.63"/>
  <polygon transform="translate(0,-85.33)" points="200.35 196.63 0 85.33 0 116.8 143.69 196.63"/>
  <polygon transform="translate(0,-85.33)" points="200.35 166.99 200.35 85.33 53.366 85.33"/>
 </g>
 <polygon transform="translate(0,-85.33)" points="0 116.8 143.69 196.63 200.35 196.63 0 85.33" fill="#f0f0f0"/>
 <polygon transform="translate(0,-85.33)" points="0 116.8 143.69 196.63 200.35 196.63 0 85.33" fill="#d80027"/>
 <polygon transform="translate(0,-85.33)" points="512 146.45 512 196.64 421.66 196.64" fill="#0052b4"/>
 <polygon transform="translate(0,-85.33)" points="311.65 85.331 486.51 85.331 311.65 182.48" fill="#0052b4"/>
 <polygon transform="translate(0,-85.33)" points="512 85.33 512 85.33 311.65 196.63 368.31 196.63 512 116.8" fill="#d80027"/>
</svg>
