<svg width="95.661" height="100" version="1.1" viewBox="0 0 95.661 100" xmlns="http://www.w3.org/2000/svg">
 <path d="m93.822 90.3c-2.7-6.1-16-10.2-24.9-14-8.8-3.8-7.6-6.1-7.9-9.3-0.1-0.9-0.1-2-0.1-3 2.7-2.5 4.8-5.8 6.3-9.6 0 0 0.1-0.2 0.1-0.3 0.3-0.9 0.6-1.8 0.9-2.8 2-0.4 3.2-2.5 3.7-4.5 0.5-0.8 1.4-2.8 1.2-5s-1-3.5-1.9-4.3c0.5-2 0.7-4.1 0.7-6.2 0-9.8-5.1-18.4-12.7-22.6-0.3-4.8-5.1-8.7-11-8.7s-10.7 3.9-10.9 8.7c-7.6 4.3-12.7 12.8-12.7 22.6 0 2 0.2 3.9 0.6 5.8-1.3 0.6-2.4 2-2.6 4.7-0.2 2.3 0.7 4.2 1.2 5 0.5 2 1.7 4.2 3.8 4.6 0.3 1 0.6 1.9 0.9 2.8 0 0.1 0 0.1 0.1 0.2v0.1c1.5 3.8 3.7 7.2 6.5 9.8 0 1 0 1.9-0.1 2.8-0.3 3.2 0.6 5.5-8.2 9.3-9 3.7-22.3 7.7-25 13.9-2.7 6.1-1.6 9.7-1.6 9.7h95.3c-0.1 0 1-3.6-1.7-9.7z"/>
</svg>
