<svg width="100.18" height="97.3" version="1.1" viewBox="0 0 100.18 97.3" xmlns="http://www.w3.org/2000/svg">
 <path d="m98.313 87.1c-2.8-6.4-16.7-10.6-26-14.6s-8-6.4-8.3-9.7c0-0.5-0.1-0.9-0.1-1.4 3.2-2.7 5.8-6.5 7.4-10.8 0 0 0.1-0.2 0.1-0.3 0.4-0.9 0.7-1.9 0.9-2.9 2.1-0.4 3.3-2.7 3.8-4.7 0.5-0.8 1.5-2.9 1.2-5.3-0.3-3-1.5-4.4-2.9-5v-0.5c0-3.9-0.4-9.4-1.1-13-0.2-1-0.4-2-0.7-3-1.4-4.5-4.2-8.5-8-11.3-3.8-3.1-9.4-4.6-14.3-4.6s-10.6 1.5-14.5 4.4c-3.8 2.8-6.7 6.8-8 11.3-0.3 1-0.5 2-0.7 3-0.7 3.6-1.1 9.2-1.1 13v0.5c-1.4 0.6-2.8 2-3.1 5.1-0.2 2.4 0.8 4.4 1.2 5.3 0.5 2.1 1.7 4.4 3.9 4.8 0.3 1 0.6 2 0.9 2.9 0 0.1 0 0.1 0.1 0.2v0.1c1.7 4.4 4.4 8.2 7.6 10.9 0 0.4 0 0.9-0.1 1.3-0.3 3.3 0.6 5.7-8.6 9.7s-23.1 8.2-26 14.6c-2.8 6.4-1.7 10.2-1.7 10.2h99.5c0.3-0.1 1.4-3.8-1.4-10.2z"/>
</svg>
