<svg xmlns="http://www.w3.org/2000/svg" width="65px" height="65px">
<path d="M45.294,64.999 C42.477,64.999 41.963,61.242 41.256,56.047 C40.061,47.282 38.577,40.028 32.494,40.028 C26.410,40.028 24.927,47.282 23.732,56.047 C23.022,61.242 22.512,64.999 19.694,64.999 C9.612,64.999 -0.003,21.949 -0.003,16.961 C-0.003,9.510 11.042,-0.000 19.694,-0.000 C22.141,-0.000 24.452,1.035 26.690,2.039 C30.198,4.412 34.784,4.412 38.292,2.039 C40.527,1.035 42.842,-0.000 45.288,-0.000 C53.940,-0.000 64.985,9.510 64.992,16.961 C64.992,21.949 55.376,64.999 45.294,64.999 ZM19.701,62.173 C20.112,61.697 20.587,58.210 20.935,55.664 C21.935,48.317 23.451,37.203 32.494,37.203 C41.536,37.203 43.054,48.306 44.054,55.664 C44.387,58.106 44.839,61.428 45.435,62.163 L45.435,62.163 C50.155,61.741 57.275,40.674 60.486,26.995 L4.504,26.995 C7.747,40.814 14.980,62.173 19.701,62.173 ZM45.292,2.825 C43.450,2.825 41.508,3.705 39.452,4.615 C35.204,7.320 29.789,7.320 25.542,4.615 C23.487,3.705 21.543,2.825 19.701,2.825 C12.041,2.825 2.829,11.507 2.829,16.961 C2.829,18.516 3.246,21.223 3.956,24.551 L61.034,24.551 C61.745,21.223 62.163,18.516 62.164,16.961 C62.164,11.508 52.949,2.825 45.292,2.825 Z"/>
</svg>