<svg width="30.398" height="19.091" version="1.1" xmlns="http://www.w3.org/2000/svg">
 <path d="m29.095 19.091h-27.792c-0.72 0-1.303-0.606-1.303-1.354v-16.383c0-0.748 0.583-1.354 1.303-1.354h27.792c0.72 0 1.303 0.606 1.303 1.354v16.383c0 0.748-0.583 1.354-1.303 1.354zm-0.846-16.857h-26.1v14.623h26.1zm-23.638 3.837 1.908 4e-3h7e-3c0.28 0.012 0.665 0.082 0.787 0.557 1e-3 4e-3 1e-3 7e-3 2e-3 0.011l0.339 1.663c0.019 0.097-0.028 0.195-0.115 0.236-0.027 0.013-0.056 0.019-0.084 0.019-0.062 0-0.123-0.029-0.162-0.083-0.637-0.871-1.588-1.562-2.751-1.997-0.093-0.035-0.148-0.134-0.131-0.235s0.101-0.175 0.2-0.175zm1.357 1.512c1.024 0.818 1.757 1.849 2.03 2.508 4e-3 8e-3 7e-3 0.017 0.01 0.027l0.186 0.7 1.729-4.593c0.031-0.081 0.106-0.134 0.189-0.134l1.479-1e-3c0.068 0 0.132 0.035 0.169 0.095 0.038 0.059 0.044 0.134 0.017 0.199l-2.687 6.497c-0.032 0.078-0.106 0.128-0.187 0.128l-1.637 2e-3c-0.09 0-0.17-0.061-0.195-0.151l-1.422-5.05c-0.024-0.088 8e-3 -0.182 0.081-0.233 0.072-0.052 0.168-0.05 0.238 6e-3zm6.837-1.499h1.406c0.06 0 0.117 0.028 0.156 0.075 0.038 0.048 0.055 0.11 0.044 0.172l-1.067 6.51c-0.017 0.102-0.102 0.176-0.201 0.176h-1.405c-0.06 0-0.117-0.028-0.155-0.075-0.039-0.048-0.055-0.111-0.045-0.172l1.067-6.51c0.017-0.102 0.101-0.176 0.2-0.176zm2.049 5.175c0.055-0.031 0.119-0.034 0.176-0.01 0.544 0.235 0.929 0.347 1.642 0.347 0.502 0 1.043-0.204 1.048-0.652 3e-3 -0.293-0.226-0.502-0.907-0.829-0.665-0.32-1.547-0.856-1.536-1.817 0.01-1.298 1.228-2.205 2.962-2.205 0.612 0 1.1 0.12 1.402 0.22 0.097 0.032 0.156 0.133 0.139 0.237l-0.164 1.004c-0.011 0.063-0.047 0.117-0.1 0.148-0.053 0.032-0.117 0.036-0.173 0.014-0.245-0.098-0.634-0.227-1.184-0.227h-0.054c-0.663 0-1.008 0.288-1.008 0.572-3e-3 0.317 0.374 0.523 0.99 0.834 1.006 0.473 1.474 1.05 1.467 1.813-0.013 1.387-1.21 2.283-3.05 2.284h-2e-3c-0.642-7e-3 -1.312-0.116-1.791-0.291-0.093-0.034-0.149-0.133-0.133-0.235l0.174-1.058c0.011-0.063 0.048-0.118 0.102-0.149zm8.311-5.168h1.241c0.095 0 0.177 0.069 0.198 0.166l1.381 6.506c0.013 0.062-1e-3 0.128-0.04 0.178-0.038 0.049-0.096 0.078-0.158 0.078h-1.27c-0.096 0-0.178-0.069-0.199-0.166-0.042-0.201-0.144-0.688-0.186-0.872-0.14 0-0.726-1e-3 -1.277-1e-3h-0.027c-0.48-1e-3 -0.927-2e-3 -1.024-2e-3 -0.038 0.101-0.153 0.414-0.332 0.905-0.03 0.082-0.105 0.136-0.189 0.136h-1.457c-0.069 0-0.133-0.036-0.17-0.096-0.038-0.059-0.044-0.135-0.016-0.2l2.572-6.057c0.171-0.403 0.456-0.575 0.953-0.575zm-0.838 4.469h1.51l-0.42-2.001-0.123-0.599z"/>
</svg>
