<svg xmlns="http://www.w3.org/2000/svg" width="36px" height="39px">
<path d="M26.083,38.988 C24.666,38.988 24.407,37.132 24.052,34.565 C23.450,30.234 22.704,26.651 19.644,26.651 C16.583,26.651 15.837,30.234 15.235,34.565 C14.878,37.132 14.621,38.988 13.204,38.988 C8.132,38.988 3.294,17.719 3.294,15.255 C3.294,11.575 8.851,6.878 13.204,6.878 C14.435,6.878 15.598,7.389 16.724,7.885 C17.751,8.337 18.724,8.765 19.642,8.765 C20.560,8.765 21.533,8.337 22.561,7.885 C23.685,7.389 24.849,6.878 26.080,6.878 C30.433,6.878 35.990,11.575 35.993,15.255 C35.993,17.719 31.155,38.988 26.083,38.988 ZM26.080,8.274 C25.153,8.274 24.175,8.704 23.142,9.158 C22.022,9.652 20.863,10.161 19.642,10.161 C18.421,10.161 17.262,9.651 16.144,9.158 C15.110,8.704 14.132,8.274 13.205,8.274 C9.351,8.274 4.717,12.562 4.717,15.255 C4.717,19.155 10.066,37.591 13.205,37.591 C13.414,37.357 13.653,35.633 13.828,34.376 C14.331,30.745 15.095,25.255 19.644,25.255 C24.192,25.255 24.956,30.744 25.459,34.376 C25.627,35.585 25.854,37.226 26.154,37.589 C29.300,37.310 34.568,19.125 34.568,15.255 C34.568,12.562 29.933,8.274 26.080,8.274 ZM8.306,4.354 C8.306,3.130 7.335,2.173 6.094,2.173 C7.335,2.173 8.306,1.216 8.306,-0.007 C8.306,1.216 9.276,2.173 10.517,2.173 C9.276,2.173 8.306,3.130 8.306,4.354 ZM3.665,8.274 C3.665,6.069 2.060,4.345 0.007,4.345 C2.060,4.345 3.665,2.621 3.665,0.416 C3.665,2.621 5.271,4.345 7.323,4.345 C5.271,4.345 3.666,6.069 3.665,8.274 Z"/>
</svg>