<svg width="882.92" height="845.7" version="1.1" viewBox="0 0 882.92 845.7" preserveAspectRatio="none" xmlns="http://www.w3.org/2000/svg">
 <path d="m251.98 808.87c-147.74-22.77-239.55-37.266-241.52-38.132-3.8984-1.7154-8.5528-6.9994-9.6526-10.959-0.5347-1.9248-0.815-112.86-0.8061-319.09 0.013-306.2 0.062-316.24 1.5495-319.45 1.7909-3.8599 6.1321-8.2167 9.4237-9.4576 4.8121-1.8141 483.09-111.78 486.17-111.78 4.7961 0 11.704 3.8259 14.695 8.139l2.4879 3.5873 0.4714 61.929 176.04 0.0046c124.89 0.0033 177 0.26775 179.35 0.91022 5.0917 1.3929 10.768 7.6916 11.966 13.277 0.7076 3.3008 0.8856 89.378 0.6987 338.01l-0.2505 333.58-2.5047 4.0511c-1.5523 2.5109-4.0449 5.0034-6.5557 6.5558l-4.051 2.5046-354.75 0.43613v29.395c0 32.008-0.1216 32.968-4.8025 37.9-3.8019 4.0057-7.7179 5.5214-13.992 5.4157-3.0906-0.052-112.87-16.625-243.96-36.83zm593.79-385.56v-312.41h-331.03v72.828h280.36l4.4266 2.3124c10.217 5.3376 12.965 18.836 5.6394 27.705-5.4114 6.5514 8.9736 5.9335-148.91 6.3965l-141.1 0.41379-0.431 73.241h138.68c98.416 0 139.73 0.26525 142.3 0.91364 4.5591 1.148 10.105 5.8306 12.095 10.213 3.9517 8.6999 0.066 19.485-8.7667 24.33-2.2954 1.2593-14.025 1.3891-143.41 1.5877l-140.91 0.21627 0.2155 36.611 0.2155 36.611 141.1 0.41379c157.89 0.46301 143.5-0.15477 148.91 6.3965 4.4758 5.4259 5.4191 12.756 2.4765 19.244-2.2711 5.0069-3.76 6.5282-8.626 8.8138l-4.1379 1.9436-280.14 0.016v73.655h280.36l4.4266 2.3125c10.217 5.3376 12.965 18.836 5.6394 27.705-5.4114 6.5514 8.9736 5.9335-148.91 6.3965l-141.1 0.41379-0.431 73.241h138.68c98.416 0 139.73 0.26525 142.3 0.91363 4.5591 1.148 10.105 5.8306 12.095 10.213 3.9517 8.6999 0.066 19.485-8.7667 24.33-2.2954 1.2592-14.025 1.3891-143.4 1.5877l-140.9 0.21626v73.636h331.03zm-525.7 163.82c3.5543-1.4847 7.2781-4.7958 8.9137-7.9256 2.3556-4.5079 75.68-263.01 75.68-266.81 0-10.191-7.7666-17.773-18.207-17.773-8.9773 0-15.201 4.9133-18.066 14.262-0.8741 2.8525-13.63 47.359-28.347 98.904-14.717 51.545-27.013 93.441-27.324 93.103-0.3113-0.33787-12.989-44.18-28.173-97.426-30.006-105.22-28.637-101.2-35.819-105.23-8.4861-4.7602-20.441-1.9644-25.314 5.9198-0.911 1.474-14.265 46.753-29.676 100.62-16.807 58.747-28.216 97.287-28.511 96.308-0.2705-0.8974-12.805-44.832-27.855-97.632-15.05-52.8-27.985-97.428-28.745-99.174-1.7629-4.0494-7.0559-8.5925-11.362-9.7519-7.9811-2.1491-16.877 1.2943-20.848 8.0695-4.5826 7.8197-6.7593-1.2176 34.468 143.11 37.18 130.16 37.496 131.2 40.674 134.81 4.1947 4.7655 8.8415 6.5536 15.868 6.1062 6.2599-0.39859 10.958-3.0398 14.115-7.9348 1.3369-2.073 10.654-33.459 28.188-94.958 14.405-50.524 26.965-94.469 27.911-97.655l1.7191-5.7931 28.342 99.156c31.026 108.55 29.128 103.02 36.81 107.09 4.2824 2.2646 10.966 2.5263 15.555 0.60909z" fill="#1464bf"/>
</svg>
