<svg xmlns="http://www.w3.org/2000/svg" width="64px" height="50px">
<path d="M14.557,-0.003 C13.034,-0.003 11.315,0.369 9.856,1.381 C8.397,2.394 7.290,4.166 7.290,6.427 L7.290,17.856 C7.290,19.989 6.640,21.067 5.609,21.897 C4.578,22.726 3.012,23.242 1.203,23.593 C0.413,23.733 -0.113,24.475 0.029,25.252 C0.136,25.840 0.605,26.300 1.203,26.406 C3.012,26.758 4.578,27.273 5.609,28.103 C6.640,28.932 7.290,30.011 7.290,32.143 L7.290,43.573 C7.290,45.834 8.397,47.605 9.856,48.618 C11.315,49.630 13.034,50.002 14.557,50.002 C15.360,50.013 16.020,49.382 16.031,48.593 C16.043,47.804 15.401,47.156 14.599,47.144 C14.585,47.144 14.571,47.144 14.557,47.144 C13.542,47.144 12.351,46.861 11.537,46.296 C10.723,45.731 10.197,45.003 10.197,43.573 L10.197,32.143 C10.197,29.354 9.120,27.219 7.471,25.893 C6.977,25.495 6.390,25.279 5.836,25.000 C6.390,24.721 6.977,24.504 7.471,24.107 C9.120,22.780 10.197,20.645 10.197,17.856 L10.197,6.427 C10.197,4.996 10.723,4.268 11.537,3.703 C12.351,3.138 13.542,2.855 14.557,2.855 C15.360,2.866 16.020,2.235 16.031,1.446 C16.043,0.657 15.401,0.009 14.599,-0.003 C14.585,-0.003 14.571,-0.003 14.557,-0.003 ZM49.306,-0.003 C48.503,0.034 47.883,0.704 47.921,1.493 C47.958,2.282 48.640,2.892 49.443,2.855 C50.458,2.855 51.649,3.138 52.463,3.703 C53.277,4.268 53.803,4.996 53.803,6.427 L53.803,17.856 C53.803,20.645 54.880,22.780 56.529,24.107 C57.023,24.504 57.610,24.721 58.164,25.000 C57.610,25.279 57.023,25.495 56.529,25.893 C54.880,27.219 53.803,29.354 53.803,32.143 L53.803,43.573 C53.803,45.003 53.277,45.731 52.463,46.296 C51.649,46.861 50.458,47.144 49.443,47.144 C48.640,47.133 47.980,47.764 47.968,48.553 C47.957,49.342 48.599,49.991 49.401,50.002 C49.415,50.002 49.429,50.002 49.443,50.002 C50.966,50.002 52.685,49.630 54.144,48.618 C55.602,47.605 56.710,45.834 56.710,43.573 L56.710,32.143 C56.710,30.011 57.360,28.932 58.391,28.103 C59.422,27.273 60.988,26.758 62.797,26.406 C63.587,26.267 64.113,25.524 63.971,24.747 C63.864,24.159 63.395,23.699 62.797,23.593 C60.988,23.242 59.422,22.726 58.391,21.897 C57.360,21.067 56.710,19.989 56.710,17.856 L56.710,6.427 C56.710,4.166 55.602,2.394 54.144,1.381 C52.685,0.369 50.966,-0.003 49.443,-0.003 C49.397,-0.005 49.352,-0.005 49.306,-0.003 Z"/>
</svg>