<svg xmlns="http://www.w3.org/2000/svg" width="54px" height="58px">
<path d="M46.918,57.990 L7.083,57.990 C3.173,57.990 -0.007,54.859 -0.007,51.010 L-0.007,11.794 C-0.007,7.946 3.173,4.815 7.083,4.815 L12.565,4.815 L12.565,1.699 C12.565,0.764 13.336,0.005 14.286,0.005 C15.237,0.005 16.008,0.764 16.008,1.699 L16.008,4.815 L25.279,4.815 L25.279,1.699 C25.279,0.764 26.050,0.005 27.001,0.005 C27.951,0.005 28.722,0.764 28.722,1.699 L28.722,4.815 L37.994,4.815 L37.994,1.699 C37.994,0.764 38.765,0.005 39.715,0.005 C40.665,0.005 41.436,0.764 41.436,1.699 L41.436,4.815 L46.918,4.815 C50.828,4.815 54.008,7.946 54.008,11.794 L54.008,51.010 C54.008,54.859 50.828,57.990 46.918,57.990 ZM50.566,11.794 C50.566,9.815 48.930,8.204 46.918,8.204 L41.436,8.204 L41.436,11.459 C41.436,12.395 40.665,13.154 39.715,13.154 C38.765,13.154 37.994,12.395 37.994,11.459 L37.994,8.204 L28.722,8.204 L28.722,11.459 C28.722,12.395 27.951,13.154 27.001,13.154 C26.050,13.154 25.279,12.395 25.279,11.459 L25.279,8.204 L16.008,8.204 L16.008,11.459 C16.008,12.395 15.237,13.154 14.286,13.154 C13.336,13.154 12.565,12.395 12.565,11.459 L12.565,8.204 L7.083,8.204 C5.072,8.204 3.436,9.815 3.436,11.794 L3.436,19.692 L50.566,19.692 L50.566,11.794 ZM50.566,23.081 L3.436,23.081 L3.436,51.010 C3.436,52.991 5.072,54.601 7.083,54.601 L46.918,54.601 C48.930,54.601 50.566,52.991 50.566,51.010 L50.566,23.081 ZM39.715,44.129 L14.286,44.129 C13.336,44.129 12.565,43.369 12.565,42.434 C12.565,41.498 13.336,40.739 14.286,40.739 L39.715,40.739 C40.665,40.739 41.436,41.498 41.436,42.434 C41.436,43.369 40.665,44.129 39.715,44.129 ZM39.715,34.794 L14.286,34.794 C13.336,34.794 12.565,34.035 12.565,33.100 C12.565,32.164 13.336,31.405 14.286,31.405 L39.715,31.405 C40.665,31.405 41.436,32.164 41.436,33.100 C41.436,34.035 40.665,34.794 39.715,34.794 Z"/>
</svg>