<svg width="819.03" height="663.45" version="1.1" viewBox="0 0 819.03 663.45" xmlns="http://www.w3.org/2000/svg">
 <path d="m50.212 661.27c-23.624-6.3451-41.829-24.883-47.968-48.844-2.2382-8.7365-2.4789-35.852-2.0942-235.89l0.43472-226.02 3.6844-8.9492c7.5545-18.349 21.085-31.88 39.434-39.434 8.9003-3.6643 9.4708-3.6869 104.57-4.1527l95.619-0.46829 48.773-97.504h234.28l48.773 97.504 95.619 0.46829c95.097 0.46573 95.668 0.48839 104.57 4.1527 18.349 7.5545 31.88 21.085 39.434 39.434l3.6844 8.9492v460.47l-3.6844 8.9492c-7.5545 18.349-21.085 31.88-39.434 39.434l-8.9492 3.6844-353.9 0.30899c-307.7 0.26865-355.07-5e-3 -362.85-2.0946zm387.52-107.18c37.426-6.5265 67.644-21.807 94.486-47.778 60.904-58.929 70.523-151.6 23.252-224-8.2047-12.566-34.661-39.022-47.227-47.227-61.283-40.013-135.6-40.013-196.88 0-12.566 8.2047-39.022 34.661-47.227 47.227-25.272 38.705-35.036 83.707-27.579 127.11 4.3621 25.39 13.202 47.753 27.579 69.772 8.2047 12.566 34.661 39.022 47.227 47.227 38.314 25.016 84.1 35.041 126.37 27.67z" stroke-width="1.6271"/>
</svg>
