<svg xmlns="http://www.w3.org/2000/svg"  width="19" height="19">
<path d="M18.152,10.470 L16.662,10.470 L16.662,17.474 C16.662,18.315 15.970,18.996 15.117,18.996 C15.116,18.996 15.115,18.996 15.114,18.996 L11.908,18.996 L11.908,14.928 C11.908,13.615 10.826,12.550 9.493,12.550 C8.159,12.550 7.077,13.615 7.077,14.928 L7.077,18.996 L3.871,18.996 C3.018,18.998 2.324,18.318 2.323,17.477 C2.323,17.476 2.323,17.475 2.323,17.474 L2.323,10.470 L0.833,10.470 C0.370,10.468 -0.003,10.098 -0.002,9.642 C-0.001,9.431 0.082,9.228 0.231,9.075 L8.905,0.230 C9.231,-0.086 9.754,-0.086 10.080,0.230 L18.754,9.075 C19.074,9.404 19.062,9.926 18.728,10.241 C18.573,10.387 18.367,10.469 18.152,10.470 Z"/>
</svg>