<svg width="15px" height="16px" version="1.1" xmlns="http://www.w3.org/2000/svg">
 <path d="m5.776 0.859c-0.9497-0.95345-2.4608-0.99566-3.6952-0.69135-1.3898 0.35448-2.0856 1.8559-2.0568 3.1936-0.039392 1.2729-0.12574 2.751 0.82736 3.7401 0.99404 0.99771 2.5874 1.0465 3.8718 0.691 1.2319-0.35318 1.9533-1.6373 1.9354-2.8693 0.01474-1.3936 0.17576-2.9776-0.8825-4.064zm-4.399 3.61c0.0026195-0.97432-0.11104-2.1827 0.75488-2.8451 0.96345-0.69273 2.6562-0.40641 3.0191 0.83212 0.22805 0.87789 0.15695 1.8032 0.11236 2.7001-0.054606 0.92368-0.85727 1.7061-1.7893 1.6833-0.94694 0.12124-1.9053-0.55331-2.0172-1.5239-0.055171-0.2786-0.058829-0.5641-0.079875-0.8465zm12.724 4.285c-0.9497-0.95345-2.4608-0.99566-3.6952-0.69135-1.3898 0.35446-2.0855 1.856-2.0567 3.1937-0.051528 1.3354-0.10467 2.8871 0.92888 3.8966 1.021 0.97865 2.6446 1.0269 3.9169 0.57709 1.2557-0.48803 1.8443-1.8951 1.8006-3.1705 0.0021-1.3168 0.10932-2.7873-0.8945-3.8056zm-4.399 3.61c0.0026349-0.97433-0.11105-2.1827 0.75488-2.8451 0.96341-0.69263 2.6563-0.40661 3.0191 0.83212 0.22804 0.87793 0.15694 1.8033 0.11236 2.7002-0.05468 0.92367-0.85719 1.7061-1.7893 1.6831-0.94683 0.12122-1.905-0.55312-2.0172-1.5235-0.05512-0.27874-0.058836-0.56435-0.079875-0.84688zm4.422-11.55c0.38424-0.64416-0.47311-0.77684-0.9312-0.69089-0.54347 0.086165-0.76642 0.67636-1.1161 1.0387-3.7119 4.6674-7.4238 9.3348-11.136 14.002-0.38265 0.64472 0.47297 0.77656 0.93134 0.69103 0.55586-0.094289 0.78386-0.70102 1.1442-1.0732 3.7025-4.656 7.4049-9.3119 11.107-13.968z"/>
</svg>
