<svg width="324.98" height="97.255" version="1.1" viewBox="0 0 324.98 97.255" xmlns="http://www.w3.org/2000/svg">
 <path d="m305.51 33.206c-3.7039-11.944-5.7919-18.686-6.2558-20.25-0.47999-1.5733-0.80665-2.8079-0.99465-3.7226-0.84931 3.2426-3.2266 11.222-7.1825 23.973zm6.8172 23.017-4.0106-13.174h-20.168l-4.0306 13.174h-12.645l19.549-55.572h14.348l19.606 55.572zm-84.469 0-13.329-43.423h-0.33733c0.47599 8.8331 0.71998 14.728 0.71998 17.682v25.741h-10.486v-55.352h15.966l13.105 42.33h0.22533l13.904-42.33h15.96v55.352h-10.936v-26.195c0-1.2346 0.028-2.6679 0.0573-4.2786 0.044-1.6266 0.20399-5.9199 0.52265-12.876h-0.35465l-14.269 43.35zm-75.051-27.749c0 6.1758 1.1706 10.841 3.5092 13.969 2.3666 3.1266 5.8652 4.6906 10.541 4.6906 9.3531 0 14.038-6.2238 14.038-18.66 0-12.469-4.6572-18.702-13.973-18.702-4.6679 0-8.1851 1.568-10.56 4.7065-2.3853 3.1493-3.5559 7.8145-3.5559 13.996m40.382 0c0 9.1571-2.2746 16.206-6.8012 21.117-4.5452 4.9265-11.066 7.3905-19.53 7.3905-8.4931 0-15.002-2.4639-19.55-7.3905-4.5439-4.9105-6.8078-11.986-6.8078-21.19 0-9.2144 2.2719-16.26 6.8265-21.113 4.5559-4.8532 11.096-7.2852 19.597-7.2852 8.4918 0 15.012 2.4533 19.513 7.3478 4.5079 4.8839 6.7532 11.945 6.7532 21.123m-75.725-27.603h11.738v55.352h-11.738zm-7.8691 55.352h-13.404l-12.86-20.941-12.881 20.941h-12.573l18.362-28.55-17.19-26.802h12.954l11.926 19.914 11.69-19.914h12.646l-17.378 27.457zm-75.567-23.017c-3.6946-11.944-5.7892-18.686-6.2572-20.25-0.46132-1.5733-0.79598-2.8079-1.012-3.7226-0.83198 3.2426-3.2159 11.222-7.1545 23.973zm6.8278 23.017-4.0226-13.174h-20.177l-4.0106 13.174h-12.648l19.541-55.572h14.348l19.596 55.572z" fill="#fff" />
 <path d="m207.44 71.482-9.6055 25.773h4.4219l2.5078-7.1445h9.8223l2.5625 7.1445h4.4414l-9.5879-25.773zm-130.85 0.09961v25.674h7.1641c4.4439 0 7.8298-1.1291 10.178-3.373 2.3453-2.2333 3.5176-5.4711 3.5176-9.707 0-3.9959-1.1256-7.0931-3.4082-9.2891-2.2546-2.2079-5.4343-3.3047-9.5195-3.3047zm34.141 0v25.674h14.506v-3.5723h-10.314v-8.0605h9.6797v-3.5039h-9.6797v-6.9805h10.314v-3.5566zm27.82 0v25.674h3.8184v-13.348c0-1.804-0.0855-3.7869-0.24414-5.9629l-0.0937-1.1504h0.13086l12.627 20.461h5.1543v-25.674h-3.8555v13.461c0 0.94131 0.0475 2.256 0.10352 3.9453 0.0747 1.6986 0.12149 2.6708 0.16015 2.9375h-0.12304l-12.578-20.344zm33.338 0v3.5977h7.5469v22.076h4.1992v-22.076h7.5488v-3.5977zm61.426 0v25.674h15.072v-3.5996h-10.873v-22.074zm-152.54 3.5039h3.6484c5.7319-1e-6 8.6035 3.0794 8.6035 9.2246 0 6.2758-3.0764 9.4141-9.2695 9.4141h-2.9824zm128.94 0c0.12 0.46932 0.33654 1.2128 0.64453 2.2168 0.29866 1.016 0.54142 1.7403 0.71875 2.2109l2.4043 7h-7.4629l2.3008-6.6992c0.62798-1.7 1.0852-3.2859 1.3945-4.7285z" fill="#f6aa57" />
</svg>
