<svg xmlns="http://www.w3.org/2000/svg" width="186px" height="33px" viewBox="0 0 186 33" preserveAspectRatio="none">
<path fill="rgb(155, 164, 170)" d="M178.775,32.554 L176.484,24.926 L164.965,24.926 L162.662,32.554 L155.439,32.554 L166.605,0.378 L174.800,0.378 L185.999,32.554 L178.775,32.554 ZM171.307,7.503 C171.033,6.591 170.847,5.877 170.739,5.347 C170.254,7.225 168.896,11.845 166.636,19.227 L174.881,19.227 C172.764,12.312 171.573,8.408 171.307,7.503 ZM144.694,17.387 C144.694,16.672 144.711,15.842 144.727,14.910 C144.752,13.968 144.844,11.482 145.026,7.455 L144.823,7.455 L136.672,32.554 L130.534,32.554 L122.921,7.412 L122.728,7.412 C123.000,12.526 123.139,15.939 123.139,17.650 L123.139,32.554 L117.150,32.554 L117.150,0.505 L126.270,0.505 L133.755,25.014 L133.884,25.014 L141.825,0.505 L150.940,0.505 L150.940,32.554 L144.694,32.554 L144.694,17.387 ZM95.689,32.993 C90.838,32.993 87.120,31.567 84.523,28.715 C81.927,25.871 80.633,21.774 80.633,16.445 C80.633,11.110 81.931,7.031 84.533,4.221 C87.135,1.411 90.870,0.002 95.726,0.002 C100.577,0.002 104.301,1.423 106.871,4.257 C109.446,7.085 110.729,11.173 110.729,16.487 C110.729,21.789 109.430,25.871 106.844,28.715 C104.248,31.567 100.524,32.993 95.689,32.993 ZM95.726,5.659 C93.060,5.659 91.051,6.567 89.695,8.384 C88.333,10.207 87.664,12.908 87.664,16.487 C87.664,20.063 88.333,22.765 89.668,24.575 C91.020,26.386 93.018,27.291 95.689,27.291 C101.031,27.291 103.708,23.688 103.708,16.487 C103.708,9.268 101.047,5.659 95.726,5.659 ZM67.475,0.505 L74.180,0.505 L74.180,32.554 L67.475,32.554 L67.475,0.505 ZM55.325,32.554 L47.980,20.430 L40.622,32.554 L33.441,32.554 L43.929,16.024 L34.110,0.505 L41.510,0.505 L48.322,12.036 L54.999,0.505 L62.222,0.505 L52.296,16.402 L62.981,32.554 L55.325,32.554 ZM21.421,24.926 L9.896,24.926 L7.605,32.554 L0.381,32.554 L11.542,0.378 L19.738,0.378 L30.931,32.554 L23.718,32.554 L21.421,24.926 ZM16.244,7.503 C15.981,6.591 15.790,5.877 15.666,5.347 C15.191,7.225 13.829,11.845 11.580,19.227 L19.818,19.227 C17.708,12.312 16.511,8.408 16.244,7.503 Z"/>
</svg>